<svg xmlns="http://www.w3.org/2000/svg" xml:space="preserve" id="svg1" version="1.1" viewBox="0 0 1860 297"><defs id="defs1"><style id="style1">.cls-1{fill:#fb2c36}</style></defs><g id="layer1"><path id="text2" d="M427.644 61.141h-40.248V26.143H506.39V61.14h-40.248v209.992h-38.499zm97.297-34.998h104.995V61.14H563.44v64.748h52.848v34.998h-52.848v75.247h66.497v34.999H524.941zm156.794 0h52.147l39.899 244.99h-38.499l-7-48.648v.7h-43.748l-7 47.948h-35.698Zm41.998 163.793-17.15-121.095h-.7l-16.799 121.095ZM792.33 26.143h54.948l24.499 175.343h.7l24.499-175.343h54.947v244.99h-36.398V85.64h-.7l-27.999 185.493h-32.199L826.628 85.64h-.7v185.493H792.33zm188.292 0h58.098q29.749 0 43.398 14 13.65 13.649 13.65 42.347v9.8q0 18.9-6.3 30.799-5.95 11.9-18.55 17.15v.7q28.7 9.799 28.7 51.097v21q0 28.348-15.05 43.397-14.7 14.7-43.398 14.7h-60.548zm53.548 99.746q11.55 0 17.15-5.95 5.95-5.95 5.95-19.95V86.34q0-13.3-4.9-19.249-4.55-5.95-14.7-5.95h-18.55v64.748zm7 110.245q10.15 0 15.05-5.25 4.9-5.6 4.9-18.899v-21.349q0-16.8-5.95-23.099-5.6-6.65-18.9-6.65h-17.15v75.247zm110.595-209.991h52.148l39.898 244.99h-38.498l-7-48.648v.7h-43.748l-7 47.948h-35.698zm41.998 163.793-17.149-121.095h-.7l-16.8 121.095zm82.597-128.795h-40.248V26.143h118.995V61.14h-40.248v209.992h-38.499zm130.895 0h-40.248V26.143h118.995V61.14h-40.248v209.992h-38.499zm97.296-34.998h38.499v209.991h63.347v34.999h-101.846zm120.395 0h104.996V61.14h-66.497v64.748h52.848v34.998h-52.848v75.247h66.497v34.999h-104.996Zm177.794 248.49q-27.999 0-42.348-15.75-14.35-16.099-14.35-45.848v-14h36.399v16.8q0 23.8 19.949 23.8 9.8 0 14.7-5.6 5.25-5.95 5.25-18.9 0-15.4-7-26.949-7-11.9-25.9-28.349-23.799-20.999-33.248-37.798-9.45-17.15-9.45-38.499 0-29.048 14.7-44.798 14.699-16.1 42.698-16.1 27.649 0 41.648 16.1 14.35 15.75 14.35 45.498v10.15h-36.399v-12.6q0-12.6-4.9-18.199-4.9-5.95-14.35-5.95-19.248 0-19.248 23.45 0 13.299 7 24.848 7.349 11.55 26.248 28 24.15 20.998 33.249 38.148 9.1 17.15 9.1 40.248 0 30.099-15.05 46.198-14.7 16.1-43.048 16.1z" aria-label="TEAMBATTLES" style="font-size:349.986px;font-family:&quot;Bebas Neue&quot;;-inkscape-font-specification:&quot;Bebas Neue, Normal&quot;;fill:#fff;stroke-width:1.31244"/><path id="path1-5" fill="none" stroke="currentColor" stroke-linecap="round" stroke-linejoin="round" stroke-width="30.011" d="M189.67 231.591 17.11 59.031V14.016h45.015l172.56 172.56m-67.524 67.523 90.032-90.031m-45.016 45.015 60.021 60.021m-15.005 15.005 30.01-30.01M189.67 66.534l52.518-52.518h45.016V59.03l-52.518 52.519M47.12 179.073l60.02 60.02M77.13 224.09l-45.015 45.015M17.109 254.1l30.01 30.01" style="stroke:#fb2c36;stroke-opacity:1"/></g></svg>