<svg xmlns="http://www.w3.org/2000/svg" version="1.1" xmlns:xlink="http://www.w3.org/1999/xlink" width="500" height="500"><svg xmlns="http://www.w3.org/2000/svg" version="1.1" xmlns:xlink="http://www.w3.org/1999/xlink" width="500" height="500"><svg id="TeamBattle" xmlns="http://www.w3.org/2000/svg" viewBox="0 0 500 500">
  <defs>
    <style>
      .cls-1 {
        fill: #fb2c36;
      }
    </style>
  </defs>
  <path class="cls-1" d="M359.65,281.63L196.18,90.45c-4.12-4.82-9.79-8.26-15.97-9.68l-81.69-18.86c-3.5-.81-7.1.23-9.63,2.76-2.54,2.54-3.57,6.14-2.77,9.64l18.89,81.67c1.43,6.17,4.87,11.83,9.68,15.95l191.18,163.48c3.05,2.61,6.85,3.9,10.64,3.9,4.22,0,8.43-1.6,11.6-4.77l30.67-30.67c6.01-6.01,6.39-15.78.87-22.24ZM316.35,318.49L127.47,156.98c-1.64-1.4-2.81-3.33-3.3-5.44l-11.51-49.76c5.4,3.53,10.4,7.54,15.53,11.47,8.43,6.23,16.91,12.27,25.78,17.95.89.59,1.96-.52,1.39-1.39-7.57-11.77-15.64-23.06-24.26-34.03-1.84-2.31-3.44-4.86-5.1-7.34l49.79,11.49c2.1.49,4.03,1.66,5.44,3.3l109.07,127.55,52.43,61.32-26.38,26.39Z"></path>
  <g id="test">
    <g>
      <path class="cls-1" d="M226.19,281.63l-45.6,36.86-26.38-26.39,34.34-42.65-14.96-12.78-36.3,44.96c-5.52,6.46-5.14,16.23.87,22.24l30.67,30.67c3.17,3.17,7.38,4.77,11.6,4.77,3.79,0,7.59-1.29,10.64-3.9l50.25-40.84-15.13-12.94Z"></path>
      <path class="cls-1" d="M410.82,74.3l-18.89,81.68c-1.43,6.17-4.86,11.83-9.68,15.95l-59.3,48.47-12.78-14.95,59.3-48.47c1.64-1.4,2.81-3.33,3.3-5.43l11.51-49.77c-5.4,3.53-10.4,7.54-15.53,11.47-8.43,6.23-16.91,12.27-25.78,17.95-.89.59-1.95-.52-1.39-1.39,7.57-11.77,15.64-23.06,24.26-34.03,1.84-2.31,3.44-4.86,5.1-7.34l-49.79,11.49c-2.13.5-4.01,1.64-5.44,3.3l-45.36,55.66-12.94-15.14,43.35-53.3c4.12-4.82,9.79-8.26,15.97-9.68l81.69-18.86c3.5-.81,7.1.22,9.63,2.76,2.54,2.54,3.57,6.14,2.77,9.63Z"></path>
    </g>
  </g>
  <path class="cls-1" d="M181.96,394.1c-2.56,0-5.12-.98-7.07-2.93l-96.11-96.11c-3.91-3.91-3.9-10.24,0-14.14,3.91-3.9,10.24-3.9,14.14,0l96.11,96.11c3.9,3.91,3.9,10.24,0,14.14-1.95,1.95-4.51,2.93-7.07,2.93Z"></path>
  <path class="cls-1" d="M146.75,394.55c-1.95,1.95-4.51,2.93-7.07,2.93s-5.12-.98-7.07-2.93l-20.03-20.03-44.34,44.34c-.62.62-1.3,1.15-2.03,1.57l10.55,10.55c3.11,3.12,3.11,8.17,0,11.29-1.56,1.56-3.6,2.34-5.65,2.34s-4.08-.78-5.64-2.34l-34.78-34.78c-3.12-3.12-3.12-8.17,0-11.29,3.12-3.11,8.17-3.11,11.29,0l10.55,10.55c.42-.73.95-1.41,1.57-2.03l44.34-44.34-23.04-23.04c-3.91-3.9-3.91-10.24,0-14.14,3.9-3.91,10.24-3.91,14.14,0l57.21,57.21c3.91,3.91,3.91,10.24,0,14.14Z"></path>
  <path class="cls-1" d="M313.2,394.1c2.56,0,5.12-.98,7.07-2.93l96.11-96.11c3.91-3.91,3.9-10.24,0-14.14-3.91-3.9-10.24-3.9-14.14,0l-96.11,96.11c-3.9,3.91-3.9,10.24,0,14.14,1.95,1.95,4.51,2.93,7.07,2.93Z"></path>
  <path class="cls-1" d="M348.41,394.55c1.95,1.95,4.51,2.93,7.07,2.93s5.12-.98,7.07-2.93l20.03-20.03,44.34,44.34c.62.62,1.3,1.15,2.03,1.57l-10.55,10.55c-3.11,3.12-3.11,8.17,0,11.29,1.56,1.56,3.6,2.34,5.65,2.34s4.08-.78,5.64-2.34l34.78-34.78c3.12-3.12,3.12-8.17,0-11.29-3.12-3.11-8.17-3.11-11.29,0l-10.55,10.55c-.42-.73-.95-1.41-1.57-2.03l-44.34-44.34,23.04-23.04c3.91-3.9,3.91-10.24,0-14.14-3.9-3.91-10.24-3.91-14.14,0l-57.21,57.21c-3.91,3.91-3.91,10.24,0,14.14Z"></path>
</svg></svg><style>@media (prefers-color-scheme: light) { :root { filter: none; } }
@media (prefers-color-scheme: dark) { :root { filter: none; } }
</style></svg>